C:/Program Files/Krita (x64)/bin/ffmpeg.exe -hide_banner -y -y -r 7 -start_number 0 -start_number_range 1 -i C:/Users/bbybe/Desktop/anim/idle/frame%04d.png -i C:/Users/bbybe/Desktop/anim/it/idle/KritaTempPalettegen_%06d.png -lavfi [0:v][1:v]paletteuse=dither=sierra2_4a:diff_mode=none -f gif -loop 0 -gifflags +transdiff C:/Users/bbybe/Desktop/anim/it/idle/it_idle.gif
=====================================================
Input #0, image2, from 'C:/Users/bbybe/Desktop/anim/idle/frame%04d.png':
  Duration: 00:00:00.40, start: 0.000000, bitrate: N/A
  Stream #0:0: Video: png, rgba(pc), 1301x1520 [SAR 11811:11811 DAR 1301:1520], 25 fps, 25 tbr, 25 tbn, 25 tbc
Input #1, image2, from 'C:/Users/bbybe/Desktop/anim/it/idle/KritaTempPalettegen_%06d.png':
  Duration: 00:00:00.04, start: 0.000000, bitrate: N/A
  Stream #1:0: Video: png, rgba(pc), 16x16 [SAR 1:1 DAR 1:1], 25 fps, 25 tbr, 25 tbn, 25 tbc
Stream mapping:
  Stream #0:0 (png) -> paletteuse:default
  Stream #1:0 (png) -> paletteuse:palette
  paletteuse -> Stream #0:0 (gif)
Press [q] to stop, [?] for help
[image2 @ 000002688c89bdc0] Thread message queue blocking; consider raising the thread_queue_size option (current value: 8)
Output #0, gif, to 'C:/Users/bbybe/Desktop/anim/it/idle/it_idle.gif':
  Metadata:
    encoder         : Lavf58.76.100
  Stream #0:0: Video: gif, pal8(pc, gbr/unknown/unknown, progressive), 1301x1520 [SAR 1:1 DAR 1301:1520], q=2-31, 200 kb/s, 7 fps, 100 tbn (default)
    Metadata:
      encoder         : Lavc58.134.100 gif
frame=    1 fps=0.0 q=-0.0 size=       0kB time=00:00:00.01 bitrate=   0.0kbits/s speed=0.0989x    frame=   10 fps=0.0 q=-0.0 Lsize=    1020kB time=00:00:01.30 bitrate=6426.7kbits/s speed=2.27x    
video:1020kB audio:0kB subtitle:0kB other streams:0kB global headers:0kB muxing overhead: 0.001915%
